<svg width="406" height="450" xmlns="http://www.w3.org/2000/svg" xmlns:xlink="http://www.w3.org/1999/xlink" overflow="hidden"><defs><clipPath id="clip0"><rect x="437" y="135" width="406" height="450"/></clipPath></defs><g clip-path="url(#clip0)" transform="translate(-437 -135)"><path d="M640 456C622.327 456 608 470.327 608 488 608 505.673 622.327 520 640 520 657.673 520 672 505.673 672 488 672 470.327 657.673 456 640 456ZM629.333 488C629.333 482.11 634.11 477.333 640 477.333 645.89 477.333 650.667 482.11 650.667 488 650.667 493.89 645.89 498.667 640 498.667 634.11 498.667 629.333 493.89 629.333 488Z" fill-rule="evenodd"/><path d="M533.158 136C480.051 136 437 178.981 437 232L437 488C437 541.02 480.051 584 533.158 584L746.842 584C799.949 584 843 541.02 843 488L843 232C843 178.981 799.949 136 746.842 136ZM821.632 232C821.632 190.763 788.147 157.333 746.842 157.333L533.158 157.333C491.853 157.333 458.368 190.763 458.368 232 458.368 273.237 491.853 306.667 533.158 306.667L746.842 306.667C788.147 306.667 821.632 273.237 821.632 232ZM458.368 292.345C473.889 311.494 496.639 324.563 522.474 327.413L522.474 360C522.474 389.455 546.391 413.333 575.895 413.333L704.105 413.333C733.609 413.333 757.526 389.455 757.526 360L757.526 327.413C783.361 324.563 806.112 311.494 821.632 292.345L821.632 488C821.632 529.237 788.147 562.667 746.842 562.667L533.158 562.667C491.853 562.667 458.368 529.237 458.368 488ZM543.842 328 736.158 328 736.158 360C736.158 377.673 721.807 392 704.105 392L575.895 392C558.193 392 543.842 377.673 543.842 360Z" fill-rule="evenodd"/></g></svg>