<svg width="408" height="450" xmlns="http://www.w3.org/2000/svg" xmlns:xlink="http://www.w3.org/1999/xlink" overflow="hidden"><defs><clipPath id="clip0"><rect x="302" y="101" width="408" height="450"/></clipPath></defs><g clip-path="url(#clip0)" transform="translate(-302 -101)"><rect x="303" y="102" width="406" height="448" fill="#FFFFFF"/><path d="M505.954 421.986C488.281 421.986 473.954 436.313 473.954 453.986 473.954 471.659 488.281 485.986 505.954 485.986 523.627 485.986 537.954 471.659 537.954 453.986 537.954 436.313 523.627 421.986 505.954 421.986ZM495.287 453.986C495.287 448.096 500.064 443.319 505.954 443.319 511.844 443.319 516.621 448.096 516.621 453.986 516.621 459.876 511.844 464.653 505.954 464.653 500.064 464.653 495.287 459.876 495.287 453.986Z" fill-rule="evenodd"/><path d="M399.612 102.486C346.505 102.486 303.454 145.467 303.454 198.486L303.454 454.486C303.454 507.506 346.505 550.486 399.612 550.486L613.296 550.486C666.403 550.486 709.454 507.506 709.454 454.486L709.454 198.486C709.454 145.467 666.403 102.486 613.296 102.486ZM688.086 198.486C688.086 157.249 654.601 123.819 613.296 123.819L399.612 123.819C358.307 123.819 324.822 157.249 324.822 198.486 324.822 239.723 358.307 273.153 399.612 273.153L613.296 273.153C654.601 273.153 688.086 239.723 688.086 198.486ZM324.822 258.831C340.343 277.98 363.093 291.049 388.928 293.899L388.928 326.486C388.928 355.941 412.845 379.819 442.349 379.819L570.559 379.819C600.063 379.819 623.98 355.941 623.98 326.486L623.98 293.899C649.815 291.049 672.566 277.98 688.086 258.831L688.086 454.486C688.086 495.723 654.601 529.153 613.296 529.153L399.612 529.153C358.307 529.153 324.822 495.723 324.822 454.486ZM410.296 294.486 602.612 294.486 602.612 326.486C602.612 344.159 588.261 358.486 570.559 358.486L442.349 358.486C424.647 358.486 410.296 344.159 410.296 326.486Z" stroke="#000000" stroke-miterlimit="8" fill-rule="evenodd"/></g></svg>