<svg width="241" height="514" xmlns="http://www.w3.org/2000/svg" xmlns:xlink="http://www.w3.org/1999/xlink" overflow="hidden"><defs><clipPath id="clip0"><rect x="663" y="69" width="241" height="514"/></clipPath></defs><g clip-path="url(#clip0)" transform="translate(-663 -69)"><path d="M752.512 113.039C750.03 109.7 745.311 109.006 741.977 111.489 738.388 114.156 734.973 117.096 731.825 120.229 720.911 130.004 711.781 142.825 704.684 158.338 702.954 162.119 704.618 166.587 708.4 168.315 709.415 168.781 710.479 169 711.527 169 714.383 169 717.114 167.367 718.379 164.6 724.638 150.918 732.587 139.722 742.007 131.324 742.113 131.228 742.218 131.131 742.32 131.03 744.994 128.356 747.903 125.848 750.962 123.572 754.299 121.091 754.994 116.376 752.512 113.039Z" fill-rule="evenodd"/><path d="M825.5 154C813.645 154 804 163.646 804 175.501 804 187.355 813.646 197 825.5 197 837.356 197 847 187.355 847 175.501 847 163.646 837.356 154 825.5 154ZM825.501 182.121C821.85 182.121 818.88 179.151 818.88 175.501 818.88 171.849 821.85 168.879 825.501 168.879 829.152 168.879 832.122 171.849 832.122 175.501 832.122 179.151 829.152 182.121 825.501 182.121Z" fill-rule="evenodd"/><path d="M703.8 227.202C703.459 226.852 703.068 226.542 702.658 226.262 702.259 225.992 701.818 225.762 701.368 225.573 700.919 225.392 700.438 225.243 699.969 225.142 698.999 224.953 697.999 224.953 697.029 225.142 696.559 225.243 696.079 225.392 695.63 225.573 695.18 225.762 694.739 225.993 694.34 226.262 693.93 226.542 693.54 226.852 693.199 227.202 691.8 228.591 691 230.521 691 232.501 691 232.991 691.05 233.481 691.149 233.961 691.239 234.441 691.389 234.921 691.579 235.371 691.76 235.821 691.989 236.26 692.26 236.66 692.54 237.07 692.85 237.46 693.2 237.8 693.541 238.151 693.93 238.46 694.341 238.731 694.74 239.001 695.181 239.241 695.631 239.42 696.08 239.611 696.561 239.75 697.03 239.85 697.52 239.951 698.01 240 698.501 240 698.99 240 699.48 239.95 699.971 239.85 700.441 239.75 700.921 239.611 701.37 239.42 701.82 239.24 702.261 239 702.66 238.731 703.07 238.46 703.461 238.151 703.801 237.8 704.151 237.46 704.461 237.071 704.74 236.66 705.011 236.26 705.24 235.821 705.43 235.371 705.61 234.921 705.76 234.441 705.85 233.961 705.95 233.482 706 232.991 706 232.501 706 230.531 705.199 228.591 703.8 227.202Z" fill-rule="evenodd"/><path d="M723.5 513 696.5 513C692.357 513 689 516.357 689 520.5 689 524.643 692.357 528 696.5 528L723.5 528C727.643 528 731 524.643 731 520.5 731 516.357 727.642 513 723.5 513Z" fill-rule="evenodd"/><path d="M899.932 132.839C899.058 131.251 890.602 116.334 873.66 101.409 827.135 60.4273 757.553 58.5802 714.234 101.593 663.147 147.174 662.983 233.344 663.001 236.956L663.001 445.887C663.001 450.03 666.37 453.387 670.526 453.387 674.683 453.387 678.051 450.03 678.051 445.887L678.051 236.919C678.047 236.092 678.178 153.734 724.411 112.644 724.519 112.549 724.622 112.451 724.725 112.35 762.904 74.2915 831.807 73.7596 875.671 124.784 866.889 127.571 860.51 135.776 860.51 145.438L860.51 145.834C860.51 152.238 860.51 199.317 860.51 205.633 860.51 215.297 866.89 223.501 875.671 226.288 840.778 266.862 789.703 274.386 756.314 257.864 757.091 251.709 759.495 242.42 765.524 239.02 769.141 236.981 770.414 232.405 768.367 228.799 766.32 225.194 761.73 223.925 758.112 225.965 746.068 232.758 740.95 249.217 740.95 262.203 740.825 550.532 741.213 538.652 740.683 538.652 733.523 538.652 685.13 538.652 678.154 538.652 677.948 538.652 678.099 541.299 678.05 472.884 678.05 468.74 674.682 465.383 670.525 465.383 666.369 465.383 663 468.74 663 472.884L663 538.549C663 544.187 666.12 549.105 670.726 551.698L670.726 561.901C670.726 572.984 679.773 582 690.891 582L728.46 582C739.58 582 748.626 572.983 748.626 561.901L748.626 551.412C753.039 548.729 756 543.901 756 538.384L756 274.182C790.18 288.082 837.747 281.299 873.66 249.663 890.597 234.744 899.053 219.83 899.931 218.235 902.488 214.681 904 210.331 904 205.633L904 145.438C904 140.742 902.488 136.393 899.932 132.839ZM733.577 561.905C733.577 564.67 731.234 567.005 728.46 567.005L690.891 567.005C688.117 567.005 685.775 564.67 685.775 561.905L685.775 553.655 733.577 553.655 733.577 561.905ZM886.367 210.892C886.212 211.012 886 211.162 885.768 211.306 885.589 211.416 885.471 211.494 885.084 211.675 884.981 211.723 884.75 211.853 884.205 212.018 884.121 212.044 883.682 212.155 883.469 212.193 883.341 212.217 882.998 212.266 882.703 212.286 882.451 212.303 882.272 212.308 881.927 212.292 881.591 212.276 881.739 212.292 881.394 212.247 881.103 212.21 880.858 212.172 880.425 212.049 877.612 211.217 875.558 208.455 875.558 205.237L875.558 145.836C875.558 141.325 879.513 137.831 883.959 138.993 886.89 139.763 888.95 142.419 888.95 145.439 888.405 208.678 890.536 207.621 886.367 210.892Z" fill-rule="evenodd"/></g></svg>