<svg width="407" height="450" xmlns="http://www.w3.org/2000/svg" xmlns:xlink="http://www.w3.org/1999/xlink" overflow="hidden"><defs><clipPath id="clip0"><rect x="798" y="81" width="407" height="450"/></clipPath></defs><g clip-path="url(#clip0)" transform="translate(-798 -81)"><path d="M810.981 154.496C810.981 119.425 839.411 90.9945 874.482 90.9945L1128.48 90.9945C1163.55 90.9945 1191.98 119.425 1191.98 154.496L1191.98 447.494C1191.98 482.565 1163.55 510.995 1128.48 510.995L874.482 510.995C839.411 510.995 810.981 482.565 810.981 447.494Z" fill="#FF0000" fill-rule="evenodd"/><path d="M1000.98 401.995C983.308 401.995 968.981 416.322 968.981 433.995 968.981 451.668 983.308 465.995 1000.98 465.995 1018.65 465.995 1032.98 451.668 1032.98 433.995 1032.98 416.322 1018.65 401.995 1000.98 401.995ZM990.314 433.995C990.314 428.105 995.091 423.328 1000.98 423.328 1006.87 423.328 1011.65 428.105 1011.65 433.995 1011.65 439.885 1006.87 444.662 1000.98 444.662 995.091 444.662 990.314 439.885 990.314 433.995Z" fill="#FFFFFF" fill-rule="evenodd"/><path d="M894.139 81.9945C841.032 81.9945 797.981 124.976 797.981 177.995L797.981 433.995C797.981 487.015 841.032 529.995 894.139 529.995L1107.82 529.995C1160.93 529.995 1203.98 487.015 1203.98 433.995L1203.98 177.995C1203.98 124.976 1160.93 81.9945 1107.82 81.9945ZM1182.61 177.995C1182.61 136.758 1149.13 103.328 1107.82 103.328L894.139 103.328C852.834 103.328 819.349 136.758 819.349 177.995 819.349 219.231 852.834 252.662 894.139 252.662L1107.82 252.662C1149.13 252.662 1182.61 219.231 1182.61 177.995ZM819.349 238.34C834.87 257.488 857.62 270.558 883.455 273.408L883.455 305.995C883.455 335.45 907.372 359.328 936.876 359.328L1065.09 359.328C1094.59 359.328 1118.51 335.45 1118.51 305.995L1118.51 273.408C1144.34 270.558 1167.09 257.488 1182.61 238.34L1182.61 433.995C1182.61 475.232 1149.13 508.661 1107.82 508.661L894.139 508.661C852.834 508.661 819.349 475.232 819.349 433.995ZM904.823 273.995 1097.14 273.995 1097.14 305.995C1097.14 323.667 1082.79 337.995 1065.09 337.995L936.876 337.995C919.174 337.995 904.823 323.667 904.823 305.995Z" fill="#FFFFFF" fill-rule="evenodd"/></g></svg>