<svg width="407" height="450" xmlns="http://www.w3.org/2000/svg" xmlns:xlink="http://www.w3.org/1999/xlink" overflow="hidden"><defs><clipPath id="clip0"><rect x="436" y="195" width="407" height="450"/></clipPath></defs><g clip-path="url(#clip0)" transform="translate(-436 -195)"><path d="M448.981 268.496C448.981 233.425 477.411 204.995 512.482 204.995L766.48 204.995C801.551 204.995 829.981 233.425 829.981 268.496L829.981 561.494C829.981 596.565 801.551 624.995 766.48 624.995L512.482 624.995C477.411 624.995 448.981 596.565 448.981 561.494Z" fill="#F8CBAD" fill-rule="evenodd"/><path d="M638.981 515.995C621.308 515.995 606.981 530.322 606.981 547.995 606.981 565.667 621.308 579.995 638.981 579.995 656.654 579.995 670.981 565.667 670.981 547.995 670.981 530.322 656.654 515.995 638.981 515.995ZM628.314 547.995C628.314 542.105 633.091 537.328 638.981 537.328 644.871 537.328 649.648 542.105 649.648 547.995 649.648 553.885 644.871 558.661 638.981 558.661 633.091 558.661 628.314 553.885 628.314 547.995Z" fill="#FFFFFF" fill-rule="evenodd"/><path d="M532.139 195.995C479.032 195.995 435.981 238.976 435.981 291.995L435.981 547.995C435.981 601.015 479.032 643.995 532.139 643.995L745.823 643.995C798.93 643.995 841.981 601.015 841.981 547.995L841.981 291.995C841.981 238.976 798.93 195.995 745.823 195.995ZM820.613 291.995C820.613 250.758 787.128 217.328 745.823 217.328L532.139 217.328C490.834 217.328 457.349 250.758 457.349 291.995 457.349 333.232 490.834 366.661 532.139 366.661L745.823 366.661C787.128 366.661 820.613 333.232 820.613 291.995ZM457.349 352.34C472.87 371.488 495.62 384.558 521.455 387.408L521.455 419.995C521.455 449.45 545.372 473.328 574.876 473.328L703.086 473.328C732.59 473.328 756.507 449.45 756.507 419.995L756.507 387.408C782.342 384.558 805.093 371.488 820.613 352.34L820.613 547.995C820.613 589.232 787.128 622.661 745.823 622.661L532.139 622.661C490.834 622.661 457.349 589.232 457.349 547.995ZM542.823 387.995 735.139 387.995 735.139 419.995C735.139 437.667 720.788 451.995 703.086 451.995L574.876 451.995C557.174 451.995 542.823 437.667 542.823 419.995Z" fill="#FFFFFF" fill-rule="evenodd"/></g></svg>