<svg width="407" height="449" xmlns="http://www.w3.org/2000/svg" xmlns:xlink="http://www.w3.org/1999/xlink" overflow="hidden"><defs><clipPath id="clip0"><rect x="722" y="18" width="407" height="449"/></clipPath></defs><g clip-path="url(#clip0)" transform="translate(-722 -18)"><path d="M734.981 90.4955C734.981 55.425 763.411 26.9945 798.482 26.9945L1052.48 26.9945C1087.55 26.9945 1115.98 55.425 1115.98 90.4955L1115.98 383.494C1115.98 418.565 1087.55 446.995 1052.48 446.995L798.482 446.995C763.411 446.995 734.981 418.565 734.981 383.494Z" fill="#A9D18E" fill-rule="evenodd"/><path d="M924.981 337.995C907.308 337.995 892.981 352.322 892.981 369.995 892.981 387.668 907.308 401.995 924.981 401.995 942.654 401.995 956.981 387.668 956.981 369.995 956.981 352.322 942.654 337.995 924.981 337.995ZM914.314 369.995C914.314 364.105 919.091 359.328 924.981 359.328 930.871 359.328 935.648 364.105 935.648 369.995 935.648 375.885 930.871 380.662 924.981 380.662 919.091 380.662 914.314 375.885 914.314 369.995Z" fill="#FFFFFF" fill-rule="evenodd"/><path d="M818.139 17.9945C765.032 17.9945 721.981 60.9755 721.981 113.995L721.981 369.995C721.981 423.015 765.032 465.995 818.139 465.995L1031.82 465.995C1084.93 465.995 1127.98 423.015 1127.98 369.995L1127.98 113.995C1127.98 60.9755 1084.93 17.9945 1031.82 17.9945ZM1106.61 113.995C1106.61 72.7576 1073.13 39.3276 1031.82 39.3276L818.139 39.3276C776.834 39.3276 743.349 72.7576 743.349 113.995 743.349 155.231 776.834 188.662 818.139 188.662L1031.82 188.662C1073.13 188.662 1106.61 155.231 1106.61 113.995ZM743.349 174.34C758.87 193.488 781.62 206.558 807.455 209.408L807.455 241.995C807.455 271.45 831.372 295.328 860.876 295.328L989.086 295.328C1018.59 295.328 1042.51 271.45 1042.51 241.995L1042.51 209.408C1068.34 206.558 1091.09 193.488 1106.61 174.34L1106.61 369.995C1106.61 411.232 1073.13 444.661 1031.82 444.661L818.139 444.661C776.834 444.661 743.349 411.232 743.349 369.995ZM828.823 209.995 1021.14 209.995 1021.14 241.995C1021.14 259.667 1006.79 273.995 989.086 273.995L860.876 273.995C843.174 273.995 828.823 259.667 828.823 241.995Z" fill="#FFFFFF" fill-rule="evenodd"/></g></svg>