<svg width="241" height="514" xmlns="http://www.w3.org/2000/svg" xmlns:xlink="http://www.w3.org/1999/xlink" overflow="hidden"><defs><clipPath id="clip0"><rect x="935" y="69" width="241" height="514"/></clipPath></defs><g clip-path="url(#clip0)" transform="translate(-935 -69)"><path d="M1144.6 125.404C1142.35 121.932 1137.74 120.956 1134.29 123.221 1130.85 125.487 1129.88 130.136 1132.13 133.607 1160 176.654 1160.11 236.14 1160.11 236.766 1160.11 237.498 1160.15 559.149 1159.91 538.627 1094.3 538.5 1097.89 538.887 1097.89 538.36L1097.89 351.178C1097.89 347.033 1094.56 343.674 1090.44 343.674 1086.33 343.674 1083 347.033 1083 351.178L1083 538.361C1083 543.882 1085.93 548.712 1090.3 551.396L1090.3 561.89C1090.3 572.979 1099.24 582 1110.24 582L1147.41 582C1158.41 582 1167.36 572.978 1167.36 561.89L1167.36 551.681C1171.91 549.086 1175 544.165 1175 538.525L1175 236.802C1175.01 234.191 1174.96 172.292 1144.6 125.404ZM1147.41 566.991 1110.24 566.991C1107.5 566.991 1105.18 564.654 1105.18 561.888L1105.18 553.634 1152.47 553.634 1152.47 561.888 1152.47 561.888C1152.47 564.654 1150.15 566.991 1147.41 566.991Z" fill-rule="evenodd"/><path d="M1133.33 158.337C1125.14 140.069 1113.57 124.222 1096.78 111.488 1093.51 109.005 1088.89 109.702 1086.46 113.038 1084.03 116.375 1084.71 121.091 1087.98 123.572 1093.09 127.452 1096.18 130.804 1096.75 131.324 1105.98 139.722 1113.78 150.918 1119.91 164.6 1121.15 167.367 1123.83 169 1126.62 169 1127.65 169 1128.69 168.78 1129.69 168.315 1133.4 166.585 1135.02 162.118 1133.33 158.337Z" fill-rule="evenodd"/><path d="M1013.5 154C1001.64 154 992 163.646 992 175.501 992 187.355 1001.65 197 1013.5 197 1025.35 197 1035 187.355 1035 175.501 1035 163.646 1025.35 154 1013.5 154ZM1013.5 182.121C1009.85 182.121 1006.88 179.151 1006.88 175.501 1006.88 171.849 1009.85 168.879 1013.5 168.879 1017.15 168.879 1020.12 171.849 1020.12 175.501 1020.12 179.151 1017.15 182.121 1013.5 182.121Z" fill-rule="evenodd"/><path d="M1146.85 231.031C1146.76 230.551 1146.61 230.081 1146.42 229.631 1146.24 229.181 1146 228.741 1145.73 228.341 1145.46 227.921 1145.15 227.541 1144.8 227.202 1144.46 226.85 1144.07 226.542 1143.66 226.262 1143.26 225.992 1142.82 225.762 1142.37 225.573 1141.91 225.392 1141.44 225.243 1140.96 225.142 1140 224.953 1139 224.953 1138.03 225.142 1137.56 225.243 1137.08 225.392 1136.63 225.573 1136.18 225.762 1135.74 225.993 1135.34 226.262 1134.92 226.542 1134.54 226.852 1134.2 227.202 1133.85 227.541 1133.54 227.921 1133.26 228.341 1132.99 228.741 1132.76 229.181 1132.57 229.631 1132.39 230.081 1132.24 230.551 1132.15 231.031 1132.05 231.521 1132 232.011 1132 232.501 1132 232.991 1132.05 233.481 1132.15 233.961 1132.24 234.441 1132.39 234.911 1132.57 235.371 1132.76 235.821 1132.99 236.26 1133.26 236.66 1133.54 237.07 1133.85 237.46 1134.2 237.8 1134.54 238.151 1134.92 238.46 1135.34 238.731 1135.74 239.001 1136.18 239.241 1136.63 239.42 1137.08 239.611 1137.56 239.76 1138.03 239.85 1138.52 239.951 1139.01 240 1139.5 240 1139.99 240 1140.48 239.95 1140.96 239.85 1141.44 239.76 1141.91 239.611 1142.37 239.42 1142.82 239.24 1143.26 239 1143.66 238.731 1144.07 238.46 1144.46 238.151 1144.8 237.8 1145.15 237.46 1145.46 237.071 1145.73 236.66 1146 236.26 1146.24 235.821 1146.42 235.371 1146.61 234.911 1146.76 234.441 1146.85 233.961 1146.95 233.482 1147 232.991 1147 232.501 1147 232.011 1146.95 231.521 1146.85 231.031Z" fill-rule="evenodd"/><path d="M1142.5 513 1115.5 513C1111.36 513 1108 516.357 1108 520.5 1108 524.643 1111.36 528 1115.5 528L1142.5 528C1146.64 528 1150 524.643 1150 520.5 1150 516.357 1146.64 513 1142.5 513Z" fill-rule="evenodd"/><path d="M1126.64 103.539C1125.96 102.892 1125.27 102.253 1124.56 101.623 1081.46 58.7729 1012.03 60.211 965.307 101.439 948.365 116.389 939.918 131.334 939.06 132.897 936.508 136.452 935 140.802 935 145.499L935 205.737C935 210.435 936.508 214.785 939.061 218.34 939.923 219.91 948.37 234.85 965.307 249.797 1001.17 281.447 1048.69 288.246 1082.84 274.333L1082.84 324.495 1082.84 324.495C1082.84 328.641 1086.2 332 1090.36 332 1094.51 332 1097.87 328.641 1097.87 324.495L1097.87 262.35C1097.87 234.177 1077.11 217.224 1070.49 228.922 1068.44 232.529 1069.71 237.109 1073.33 239.15 1079.36 242.562 1081.75 251.766 1082.52 258.009 1049.15 274.552 998.123 266.987 963.299 226.409 972.072 223.62 978.444 215.409 978.444 205.739L978.444 205.342C978.444 199.016 978.444 151.833 978.444 145.5 978.444 135.829 972.071 127.62 963.299 124.831 1002.84 78.7475 1071.83 70.1953 1114.08 112.389 1114.11 112.414 1115.51 113.684 1116.32 114.454 1119.34 117.298 1124.1 117.164 1126.95 114.15 1129.8 111.135 1129.66 106.385 1126.64 103.539ZM963.411 145.897 963.411 205.341C963.411 210.915 957.688 214.188 953.207 211.41 948.229 208.306 950.557 206.454 950.032 145.499 950.032 141.584 953.431 138.489 957.348 138.853 960.806 139.17 963.411 142.283 963.411 145.897Z" fill-rule="evenodd"/></g></svg>