<svg width="407" height="452" xmlns="http://www.w3.org/2000/svg" xmlns:xlink="http://www.w3.org/1999/xlink" overflow="hidden"><defs><clipPath id="clip0"><rect x="180" y="52" width="407" height="452"/></clipPath><clipPath id="clip1"><rect x="180" y="53" width="406" height="450"/></clipPath><clipPath id="clip2"><rect x="180" y="53" width="407" height="450"/></clipPath><clipPath id="clip3"><rect x="180" y="53" width="407" height="450"/></clipPath><clipPath id="clip4"><rect x="180" y="53" width="407" height="450"/></clipPath></defs><g clip-path="url(#clip0)" transform="translate(-180 -52)"><path d="M191 126.501C191 91.4304 219.43 63 254.501 63L508.499 63C543.57 63 572 91.4304 572 126.501L572 419.499C572 454.57 543.57 483 508.499 483L254.501 483C219.43 483 191 454.57 191 419.499Z" fill="#70AD47" fill-rule="evenodd"/><g clip-path="url(#clip1)"><g clip-path="url(#clip2)"><g clip-path="url(#clip3)"><g clip-path="url(#clip4)"><path d="M383 374C365.327 374 351 388.327 351 406 351 423.673 365.327 438 383 438 400.673 438 415 423.673 415 406 415 388.327 400.673 374 383 374ZM372.333 406C372.333 400.11 377.11 395.333 383 395.333 388.89 395.333 393.667 400.11 393.667 406 393.667 411.89 388.89 416.667 383 416.667 377.11 416.667 372.333 411.89 372.333 406Z" fill-rule="evenodd"/><path d="M276.158 54C223.051 54 180 96.981 180 150L180 406C180 459.02 223.051 502 276.158 502L489.842 502C542.949 502 586 459.02 586 406L586 150C586 96.981 542.949 54 489.842 54ZM564.632 150C564.632 108.763 531.147 75.333 489.842 75.333L276.158 75.333C234.853 75.333 201.368 108.763 201.368 150 201.368 191.237 234.853 224.667 276.158 224.667L489.842 224.667C531.147 224.667 564.632 191.237 564.632 150ZM201.368 210.345C216.889 229.494 239.639 242.563 265.474 245.413L265.474 278C265.474 307.455 289.391 331.333 318.895 331.333L447.105 331.333C476.609 331.333 500.526 307.455 500.526 278L500.526 245.413C526.361 242.563 549.112 229.494 564.632 210.345L564.632 406C564.632 447.237 531.147 480.667 489.842 480.667L276.158 480.667C234.853 480.667 201.368 447.237 201.368 406ZM286.842 246 479.158 246 479.158 278C479.158 295.673 464.807 310 447.105 310L318.895 310C301.193 310 286.842 295.673 286.842 278Z" fill-rule="evenodd"/></g></g></g></g></g></svg>