<svg width="407" height="449" xmlns="http://www.w3.org/2000/svg" xmlns:xlink="http://www.w3.org/1999/xlink" overflow="hidden"><defs><clipPath id="clip0"><rect x="801" y="52" width="407" height="449"/></clipPath></defs><g clip-path="url(#clip0)" transform="translate(-801 -52)"><path d="M812.981 124.496C812.981 89.425 841.411 60.9945 876.482 60.9945L1130.48 60.9945C1165.55 60.9945 1193.98 89.425 1193.98 124.496L1193.98 417.494C1193.98 452.565 1165.55 480.995 1130.48 480.995L876.482 480.995C841.411 480.995 812.981 452.565 812.981 417.494Z" fill="#70AD47" fill-rule="evenodd"/><path d="M1004.98 371.995C987.308 371.995 972.981 386.322 972.981 403.995 972.981 421.668 987.308 435.995 1004.98 435.995 1022.65 435.995 1036.98 421.668 1036.98 403.995 1036.98 386.322 1022.65 371.995 1004.98 371.995ZM994.314 403.995C994.314 398.105 999.091 393.328 1004.98 393.328 1010.87 393.328 1015.65 398.105 1015.65 403.995 1015.65 409.885 1010.87 414.662 1004.98 414.662 999.091 414.662 994.314 409.885 994.314 403.995Z" fill="#FFFFFF" fill-rule="evenodd"/><path d="M898.139 51.9945C845.032 51.9945 801.981 94.9755 801.981 147.995L801.981 403.995C801.981 457.015 845.032 499.995 898.139 499.995L1111.82 499.995C1164.93 499.995 1207.98 457.015 1207.98 403.995L1207.98 147.995C1207.98 94.9755 1164.93 51.9945 1111.82 51.9945ZM1186.61 147.995C1186.61 106.758 1153.13 73.3276 1111.82 73.3276L898.139 73.3276C856.834 73.3276 823.349 106.758 823.349 147.995 823.349 189.231 856.834 222.662 898.139 222.662L1111.82 222.662C1153.13 222.662 1186.61 189.231 1186.61 147.995ZM823.349 208.34C838.87 227.488 861.62 240.558 887.455 243.408L887.455 275.995C887.455 305.45 911.372 329.328 940.876 329.328L1069.09 329.328C1098.59 329.328 1122.51 305.45 1122.51 275.995L1122.51 243.408C1148.34 240.558 1171.09 227.488 1186.61 208.34L1186.61 403.995C1186.61 445.232 1153.13 478.661 1111.82 478.661L898.139 478.661C856.834 478.661 823.349 445.232 823.349 403.995ZM908.823 243.995 1101.14 243.995 1101.14 275.995C1101.14 293.667 1086.79 307.995 1069.09 307.995L940.876 307.995C923.174 307.995 908.823 293.667 908.823 275.995Z" fill="#FFFFFF" fill-rule="evenodd"/></g></svg>