<svg width="408" height="449" xmlns="http://www.w3.org/2000/svg" xmlns:xlink="http://www.w3.org/1999/xlink" overflow="hidden"><defs><clipPath id="clip0"><rect x="785" y="103" width="408" height="449"/></clipPath></defs><g clip-path="url(#clip0)" transform="translate(-785 -103)"><path d="M798.981 175.496C798.981 140.425 827.411 111.995 862.482 111.995L1116.48 111.995C1151.55 111.995 1179.98 140.425 1179.98 175.496L1179.98 468.494C1179.98 503.565 1151.55 531.995 1116.48 531.995L862.482 531.995C827.411 531.995 798.981 503.565 798.981 468.494Z" fill="#C55A11" fill-rule="evenodd"/><path d="M988.981 422.995C971.308 422.995 956.981 437.322 956.981 454.995 956.981 472.668 971.308 486.995 988.981 486.995 1006.65 486.995 1020.98 472.668 1020.98 454.995 1020.98 437.322 1006.65 422.995 988.981 422.995ZM978.314 454.995C978.314 449.105 983.091 444.328 988.981 444.328 994.871 444.328 999.648 449.105 999.648 454.995 999.648 460.885 994.871 465.662 988.981 465.662 983.091 465.662 978.314 460.885 978.314 454.995Z" fill="#FFFFFF" fill-rule="evenodd"/><path d="M882.139 102.995C829.032 102.995 785.981 145.976 785.981 198.995L785.981 454.995C785.981 508.015 829.032 550.995 882.139 550.995L1095.82 550.995C1148.93 550.995 1191.98 508.015 1191.98 454.995L1191.98 198.995C1191.98 145.976 1148.93 102.995 1095.82 102.995ZM1170.61 198.995C1170.61 157.758 1137.13 124.328 1095.82 124.328L882.139 124.328C840.834 124.328 807.349 157.758 807.349 198.995 807.349 240.231 840.834 273.661 882.139 273.661L1095.82 273.661C1137.13 273.661 1170.61 240.231 1170.61 198.995ZM807.349 259.34C822.87 278.488 845.62 291.558 871.455 294.408L871.455 326.995C871.455 356.45 895.372 380.328 924.876 380.328L1053.09 380.328C1082.59 380.328 1106.51 356.45 1106.51 326.995L1106.51 294.408C1132.34 291.558 1155.09 278.488 1170.61 259.34L1170.61 454.995C1170.61 496.232 1137.13 529.661 1095.82 529.661L882.139 529.661C840.834 529.661 807.349 496.232 807.349 454.995ZM892.823 294.995 1085.14 294.995 1085.14 326.995C1085.14 344.667 1070.79 358.995 1053.09 358.995L924.876 358.995C907.174 358.995 892.823 344.667 892.823 326.995Z" fill="#FFFFFF" fill-rule="evenodd"/></g></svg>